# xmcd
# 
# Track frame offsets:
#     150
#     20713
#     87687
#     108394
# 
# Disc length: 1532
# 
# Revision: 1
# Processed by: cddbd v1.5.2PL0 Copyright (c) Steve Scherf et al.
# Submitted via: fre:ac v1.0.17
# 
DISCID=3005fa04
DTITLE=宮本フレデリカ（CV：髙野麻美） - THE IDOLM@STER CINDERELLA MASTER 033宮本フレデリカ
DYEAR=2015
DGENRE=Game
TTITLE0=き・ま・ぐ・れ☆Cafe au lait!
TTITLE1=ドラマ「目指せ！シンデレラNO.1！ -宮本フレデリカ編-」
TTITLE2=き・ま・ぐ・れ☆Cafe au lait!　オリジナル・カラオケ
TTITLE3=ボーナス・トラック
EXTD=
EXTT0=
EXTT1=
EXTT2=
EXTT3=
PLAYORDER=
